:version 1.10
:name ASF
:units
  mass 1
  length 1
  angle deg
:documentation
  ASF file generated by Kaydara
:root
  axis xyz
  order  tx ty tz rx ry rz
  position 0 0 0
  orientation 0 0 0
:bonedata
  begin
    id 1
    name lfemurDummy
    direction 0.61522 -0.761478 0.204097
    length 5.68318
    axis 0 -0 0 xyz
  end
  begin
    id 2
    name lfemur
    direction 0.34202 -0.939693 -5.84747e-008
    length 16.9147
    axis 0 -0 20 xyz
    dof rx ry rz
    limits( -inf , inf )
( -inf , inf )
( -inf , inf )

  end
  begin
    id 3
    name ltibia
    direction 0.34202 -0.939693 1.20839e-009
    length 18.0532
    axis 0 -0 20 xyz
    dof rz ry rx
    limits( -inf , inf )
( -inf , inf )
( -inf , inf )

  end
  begin
    id 4
    name lfoot
    direction 0.0841971 -0.23133 0.969225
    length 5.23822
    axis -90 7.62852e-016 20 xyz
    dof ry rx rz
    limits( -inf , inf )
( -inf , inf )
( -inf , inf )

  end
  begin
    id 5
    name ltoes
    direction 0 0 0
    length 0
    axis 0 0 0 xyz
    dof rz ry rx
    limits( -inf , inf )
( -inf , inf )
( -inf , inf )

  end
  begin
    id 6
    name rfemurDummy
    direction -0.625247 -0.75382 0.202044
    length 5.74091
    axis 0 -0 0 xyz
  end
  begin
    id 7
    name rfemur
    direction -0.34202 -0.939693 -1.47013e-008
    length 16.4922
    axis 0 -0 -20 xyz
    dof rx ry rz
    limits( -inf , inf )
( -inf , inf )
( -inf , inf )

  end
  begin
    id 8
    name rtibia
    direction -0.34202 -0.939693 -7.74345e-010
    length 18.2421
    axis 0 -0 -20 xyz
    dof rz ry rx
    limits( -inf , inf )
( -inf , inf )
( -inf , inf )

  end
  begin
    id 9
    name rfoot
    direction -0.124331 -0.341598 0.931586
    length 5.45787
    axis -90 -7.62852e-016 -20 xyz
    dof ry rx rz
    limits( -inf , inf )
( -inf , inf )
( -inf , inf )

  end
  begin
    id 10
    name rtoes
    direction 0 0 0
    length 0
    axis 0 0 0 xyz
    dof rz ry rx
    limits( -inf , inf )
( -inf , inf )
( -inf , inf )

  end
  begin
    id 11
    name lowerbackDummy
    direction 0 0 0
    length 0
    axis 0 -0 0 xyz
  end
  begin
    id 12
    name lowerback
    direction -0.0218484 0.994884 -0.0986304
    length 4.45607
    axis 0 -0 0 xyz
    dof rx ry rz
    limits( -inf , inf )
( -inf , inf )
( -inf , inf )

  end
  begin
    id 13
    name upperback
    direction -0.00973057 0.999717 -0.0217111
    length 4.47449
    axis 0 -0 0 xyz
    dof rx ry rz
    limits( -inf , inf )
( -inf , inf )
( -inf , inf )

  end
  begin
    id 14
    name thorax
    direction -0.000928171 0.999699 0.0245198
    length 4.50973
    axis 0 -0 0 xyz
    dof rx ry rz
    limits( -inf , inf )
( -inf , inf )
( -inf , inf )

  end
  begin
    id 15
    name rclavicle
    direction -0.9009 0.425937 -0.0834055
    length 7.28587
    axis 0 -0 0 xyz
    dof rx ry rz
    limits( -inf , inf )
( -inf , inf )
( -inf , inf )

  end
  begin
    id 16
    name rhumerus
    direction -1 -2.23604e-007 -1.42637e-007
    length 13.5704
    axis 180 30 90 xyz
    dof rx ry rz
    limits( -inf , inf )
( -inf , inf )
( -inf , inf )

  end
  begin
    id 17
    name rradius
    direction -1 5.68281e-008 -4.4952e-007
    length 8.06782
    axis 180 30 90 xyz
    dof rz ry rx
    limits( -inf , inf )
( -inf , inf )
( -inf , inf )

  end
  begin
    id 18
    name rwrist
    direction -1 1.51393e-007 1.38143e-007
    length 4.03391
    axis -90 -90 0 xyz
    dof rz rx ry
    limits( -inf , inf )
( -inf , inf )
( -inf , inf )

  end
  begin
    id 19
    name rthumb
    direction 0 0 0
    length 0
    axis 0 0 0 xyz
    dof ry rx rz
    limits( -inf , inf )
( -inf , inf )
( -inf , inf )

  end
  begin
    id 20
    name rhand
    direction -1 -3.34077e-007 -5.59631e-007
    length 1.29744
    axis -90 -90 0 xyz
    dof ry rx rz
    limits( -inf , inf )
( -inf , inf )
( -inf , inf )

  end
  begin
    id 21
    name rfingers
    direction 0 0 0
    length 0
    axis 0 0 0 xyz
    dof rz ry rx
    limits( -inf , inf )
( -inf , inf )
( -inf , inf )

  end
  begin
    id 22
    name lclavicle
    direction 0.940017 0.332249 -0.0773232
    length 8.29589
    axis 0 -0 0 xyz
    dof rx ry rz
    limits( -inf , inf )
( -inf , inf )
( -inf , inf )

  end
  begin
    id 23
    name lhumerus
    direction 1 7.41158e-008 -1.44768e-008
    length 12.0042
    axis 180 -30 -90 xyz
    dof rx ry rz
    limits( -inf , inf )
( -inf , inf )
( -inf , inf )

  end
  begin
    id 24
    name lradius
    direction 1 -1.32972e-007 3.10821e-007
    length 8.1902
    axis 180 -30 -90 xyz
    dof rz ry rx
    limits( -inf , inf )
( -inf , inf )
( -inf , inf )

  end
  begin
    id 25
    name lwrist
    direction 1 3.08957e-007 4.01394e-007
    length 4.09509
    axis -90 90 0 xyz
    dof rz rx ry
    limits( -inf , inf )
( -inf , inf )
( -inf , inf )

  end
  begin
    id 26
    name lthumb
    direction 0 0 0
    length 0
    axis 0 0 0 xyz
    dof ry rx rz
    limits( -inf , inf )
( -inf , inf )
( -inf , inf )

  end
  begin
    id 27
    name lhand
    direction 1 -1.64125e-007 -6.99514e-007
    length 1.37229
    axis -90 90 0 xyz
    dof ry rx rz
    limits( -inf , inf )
( -inf , inf )
( -inf , inf )

  end
  begin
    id 28
    name lfingers
    direction 0 0 0
    length 0
    axis 0 0 0 xyz
    dof rz ry rx
    limits( -inf , inf )
( -inf , inf )
( -inf , inf )

  end
  begin
    id 29
    name lowerneck
    direction -0.030798 0.998024 0.0547665
    length 3.93918
    axis 0 -0 0 xyz
    dof rx ry rz
    limits( -inf , inf )
( -inf , inf )
( -inf , inf )

  end
  begin
    id 30
    name upperneck
    direction 0.0531588 0.996611 -0.0627736
    length 3.95491
    axis 0 -0 0 xyz
    dof rx ry rz
    limits( -inf , inf )
( -inf , inf )
( -inf , inf )

  end
  begin
    id 31
    name head
    direction 0 0 0
    length 0
    axis 0 0 0 xyz
    dof rx ry rz
    limits( -inf , inf )
( -inf , inf )
( -inf , inf )

  end
:hierarchy
  begin
    root lfemurDummy rfemurDummy lowerbackDummy
    lfemurDummy lfemur
    lfemur ltibia
    ltibia lfoot
    lfoot ltoes
    rfemurDummy rfemur
    rfemur rtibia
    rtibia rfoot
    rfoot rtoes
    lowerbackDummy lowerback
    lowerback upperback
    upperback thorax
    thorax rclavicle lclavicle lowerneck
    rclavicle rhumerus
    rhumerus rradius
    rradius rwrist
    rwrist rthumb rhand
    rhand rfingers
    lclavicle lhumerus
    lhumerus lradius
    lradius lwrist
    lwrist lthumb lhand
    lhand lfingers
    lowerneck upperneck
    upperneck head
  end

:SAMPLES-PER-SECOND 30
:FULLY-SPECIFIED
:DEGREES
28
root  10.55368889 40.09533379 -10.93511131 -3.798419952 -49.7181015 4.617740154
lowerback  8.585140228 1.541890025 -0.9852809906
upperback  3.512379885 1.906030059 -0.4544799924
thorax  -1.193269968 0.9239500165 -0.09453859925
lowerneck  1.476959944 6.688189983 -6.210040092
upperneck  16.34469986 8.01074028 7.677770138
head  4.04527998 3.89718008 3.582350016
lclavicle  0 -9.442270133e-015 7.951389973e-016
lhumerus  18.69109917 -5.547860146 65.02480316
lradius  2.656871248e-031 -2.325914704e-031 138.8000031
lwrist  -7.062250077e-031 -0 13.15330029
lhand  -1.496451383e-031 -27.76390076 20.11240005
lfingers  90 7.125020027 -90
lthumb  89.89689403 5.08795885 91.16245106
rclavicle  0 -9.442270133e-015 7.951389973e-016
rhumerus  19.18300056 10.05350018 -73.09580231
rradius  -2.865229025e-031 2.063808778e-031 144.2350006
rwrist  1.412450015e-030 2.206953149e-031 -24.52000046
rhand  -7.920061211e-032 -33.2840004 9.303460121
rfingers  -90 -7.125020027 -90
rthumb  -92.93752616 -24.25625642 -97.11982154
rfemur  -14.95919991 14.68780041 4.53482008
rtibia  -0 0 51.04740143
rfoot  -4.660816111e-032 -18.73320007 -2.57991004
rtoes  5.373923086 19.29304026 -105.8922705
lfemur  -23.31979942 -4.88173008 -6.136370182
ltibia  -0 0 49.8669014
lfoot  4.432004411e-032 -5.179669857 -2.796469927
ltoes  -4.250644065 -19.5611806 -102.515957
29
root  10.51973358 40.02622169 -11.03908884 -3.411250114 -49.71039963 4.179580212
lowerback  8.346770287 1.50030005 -0.7782710195
upperback  3.453949928 1.871989965 -0.4679360092
thorax  -1.115120053 0.9095500112 -0.2155440003
lowerneck  1.234789968 6.66590023 -6.103680134
upperneck  17.09359932 7.94836998 7.721099854
head  4.319149971 3.869309902 3.612390041
lclavicle  0 -9.442270133e-015 7.951389973e-016
lhumerus  18.67060089 -5.520229816 64.91570282
lradius  2.658656277e-031 -2.323874101e-031 138.8439941
lwrist  0 -0 12.97850037
lhand  -1.496451383e-031 -27.76390076 20.11240005
lfingers  90 7.125020027 -90
lthumb  89.89689403 5.08795885 91.16245106
rclavicle  0 -9.442270133e-015 7.951389973e-016
rhumerus  19.38969994 9.749290466 -72.95020294
rradius  -2.868682696e-031 2.059005495e-031 144.3309937
rwrist  7.062250077e-031 4.413906298e-032 -24.47369957
rhand  -7.920061211e-032 -33.2840004 9.303460121
rfingers  -90 -7.125020027 -90
rthumb  -92.93752616 -24.25625642 -97.11982154
rfemur  -14.62860012 15.01620007 5.091479778
rtibia  -0 0 51.14049911
rfoot  -9.333379736e-032 -18.94470024 -7.119110107
rtoes  5.373923086 19.29304026 -105.8922705
lfemur  -23.41329956 -4.474130154 -6.143449783
ltibia  -0 0 51.59600067
lfoot  6.647571994e-032 -5.138179779 -2.952219963
ltoes  -4.250644065 -19.5611806 -102.515957
30
root  10.47795589 39.92600028 -11.14817792 -3.106810093 -49.73419952 3.839659929
lowerback  8.126480103 1.462290049 -0.7052099705
upperback  3.322979927 1.832360029 -0.4659479856
thorax  -1.126549959 0.8919439912 -0.2469989955
lowerneck  1.073809981 6.661960125 -6.126450062
upperneck  17.90880013 7.889729977 7.874259949
head  4.589660168 3.839109898 3.696310043
lclavicle  0 -9.442270133e-015 7.951389973e-016
lhumerus  18.45569992 -5.446280003 64.84290314
lradius  2.661696437e-031 -2.320391371e-031 138.9190063
lwrist  -7.062250077e-031 -1.765562519e-031 12.87020016
lhand  -1.496451383e-031 -27.76390076 20.11240005
lfingers  90 7.125020027 -90
lthumb  89.89689403 5.08795885 91.16245106
rclavicle  0 -9.442270133e-015 7.951389973e-016
rhumerus  19.50650024 9.657050133 -72.86129761
rradius  -2.871016805e-031 2.055749631e-031 144.3959961
rwrist  7.062250077e-031 1.765562519e-031 -24.20439911
rhand  -7.920061211e-032 -33.2840004 9.303460121
rfingers  -90 -7.125020027 -90
rthumb  -92.93752616 -24.25625642 -97.11982154
rfemur  -14.35379982 15.49240017 5.561039925
rtibia  -0 0 51.37810135
rfoot  -0 -18.56200027 -8.743610382
rtoes  5.373923086 19.29304026 -105.8922705
lfemur  -23.45549965 -3.930840015 -6.231669903
ltibia  -0 0 53.29629898
lfoot  6.64734256e-032 -5.116139889 -3.051830053
ltoes  -4.250644065 -19.5611806 -102.515957
31
root  10.4381336 39.79311064 -11.26060035 -2.920160055 -49.7397995 3.593050003
lowerback  7.9801898 1.453259945 -0.7076179981
upperback  3.195689917 1.823879957 -0.4683159888
thorax  -1.177109957 0.8891630173 -0.245480001
lowerneck  0.7715600133 6.569369793 -6.084549904
upperneck  18.8477993 7.718170166 7.968589783
head  4.937160015 3.755539894 3.760839939
lclavicle  0 -9.442270133e-015 7.951389973e-016
lhumerus  18.22520065 -5.558589935 64.83840179
lradius  2.668003945e-031 -2.31313618e-031 139.0749969
lwrist  -1.412450015e-030 -1.765562519e-031 12.76949978
lhand  -1.496451383e-031 -27.76390076 20.11240005
lfingers  90 7.125020027 -90
lthumb  89.89689403 5.08795885 91.16245106
rclavicle  0 -9.442270133e-015 7.951389973e-016
rhumerus  19.78829956 9.541879654 -72.84609985
rradius  -2.874242294e-031 2.051237498e-031 144.4859924
rwrist  7.062250077e-031 8.827812596e-032 -23.46910095
rhand  -7.920061211e-032 -33.2840004 9.303460121
rfingers  -90 -7.125020027 -90
rthumb  -92.93752616 -24.25625642 -97.11982154
rfemur  -13.98789978 16.25169945 5.863160133
rtibia  -0 0 51.70489883
rfoot  -0 -18.42950058 -8.924300194
rtoes  5.373923086 19.29304026 -105.8922705
lfemur  -23.41530037 -3.316529989 -6.398839951
ltibia  -0 0 54.91519928
lfoot  4.432781458e-032 -5.289309978 -3.191179991
ltoes  -4.250644065 -19.5611806 -102.515957
32
root  10.3922889 39.63022307 -11.37566679 -2.936880112 -49.67340088 3.539520025
lowerback  7.841060162 1.423920035 -0.8438509703
upperback  3.111449957 1.77718997 -0.5108759999
thorax  -1.189829946 0.8662310243 -0.2064809948
lowerneck  0.4012469947 6.494840145 -6.060800076
upperneck  19.75889969 7.57531023 8.070199966
head  5.28704977 3.687129974 3.833319902
lclavicle  0 -9.442270133e-015 7.951389973e-016
lhumerus  17.96299934 -5.687829971 64.82460022
lradius  2.67405094e-031 -2.306143015e-031 139.2250061
lwrist  -1.412450015e-030 -0 12.58300018
lhand  -1.496451383e-031 -27.76390076 20.11240005
lfingers  90 7.125020027 -90
lthumb  89.89689403 5.08795885 91.16245106
rclavicle  0 -9.442270133e-015 7.951389973e-016
rhumerus  20.05879974 9.294960022 -72.87290192
rradius  -2.878032363e-031 2.04591636e-031 144.5919952
rwrist  7.062250077e-031 -0 -22.66270065
rhand  -7.920061211e-032 -33.2840004 9.303460121
rfingers  -90 -7.125020027 -90
rthumb  -92.93752616 -24.25625642 -97.11982154
rfemur  -13.51640034 16.92429924 6.050179958
rtibia  -0 0 52.04449844
rfoot  -0 -18.01210022 -8.518580437
rtoes  5.373923086 19.29304026 -105.8922705
lfemur  -23.2989006 -2.826980114 -6.651120186
ltibia  -0 0 56.4109993
lfoot  4.437015383e-032 -5.850220203 -3.44408989
ltoes  -4.250644065 -19.5611806 -102.515957
33
root  10.33477783 39.44555568 -11.49404481 -3.070090055 -49.64369965 3.595619917
lowerback  7.714310169 1.435189962 -1.112699986
upperback  3.042510033 1.774070024 -0.5792919993
thorax  -1.196720004 0.8642169833 -0.1237310022
lowerneck  -0.07880119979 6.421269894 -6.001920223
upperneck  20.70059967 7.432559967 8.192709923
head  5.668570042 3.624680042 3.913000107
lclavicle  0 -9.442270133e-015 7.951389973e-016
lhumerus  17.71929932 -5.754399776 64.79889679
lradius  2.677669973e-031 -2.301939954e-031 139.3150024
lwrist  -7.062250077e-031 -0 12.27060032
lhand  -1.496451383e-031 -27.76390076 20.11240005
lfingers  90 7.125020027 -90
lthumb  89.89689403 5.08795885 91.16245106
rclavicle  0 -9.442270133e-015 7.951389973e-016
rhumerus  20.12549973 8.951669693 -72.77739716
rradius  -2.881812581e-031 2.04058822e-031 144.697998
rwrist  7.062250077e-031 1.765562519e-031 -22.12859917
rhand  -7.920061211e-032 -33.2840004 9.303460121
rfingers  -90 -7.125020027 -90
rthumb  -92.93752616 -24.25625642 -97.11982154
rfemur  -13.00640011 17.52109909 6.239640236
rtibia  -0 0 52.31629944
rfoot  -0 -19.17840004 -8.178709984
rtoes  5.373923086 19.29304026 -105.8922705
lfemur  -23.07209969 -2.271229982 -6.939439774
ltibia  -0 0 57.77909851
lfoot  4.445047301e-032 -6.786089897 -3.568370104
ltoes  -4.250644065 -19.5611806 -102.515957
34
root  10.2660442 39.24466531 -11.61459975 -3.277179956 -49.667099 3.671710014
lowerback  7.672269821 1.483369946 -1.504080057
upperback  2.970099926 1.810060024 -0.6158750057
thorax  -1.258990049 0.8811290264 0.05464829877
lowerneck  -0.6513580084 6.265620232 -5.821269989
upperneck  21.71769905 7.209569931 8.084630013
head  6.116630077 3.516499996 3.905189991
lclavicle  0 -9.442270133e-015 7.951389973e-016
lhumerus  17.42040062 -5.835800171 64.79519653
lradius  2.685608824e-031 -2.292672955e-031 139.5130005
lwrist  -7.062250077e-031 -0 11.94130039
lhand  -1.496451383e-031 -27.76390076 20.11240005
lfingers  90 7.125020027 -90
lthumb  89.89689403 5.08795885 91.16245106
rclavicle  0 -9.442270133e-015 7.951389973e-016
rhumerus  20.18950081 8.761030197 -72.73519897
rradius  -2.885973679e-031 2.034698985e-031 144.8150024
rwrist  7.062250077e-031 -2.648343779e-031 -21.92900085
rhand  -7.920061211e-032 -33.2840004 9.303460121
rfingers  -90 -7.125020027 -90
rthumb  -92.93752616 -24.25625642 -97.11982154
rfemur  -12.43410015 18.23340034 6.447000027
rtibia  -0 0 52.45330048
rfoot  -0 -20.66959953 -7.642779827
rtoes  5.373923086 19.29304026 -105.8922705
lfemur  -22.70569992 -1.609519958 -7.198609829
ltibia  -0 0 58.99850082
lfoot  6.684907355e-032 -7.937610149 -3.218650103
ltoes  -4.250644065 -19.5611806 -102.515957
35
root  10.1998224 39.0382211 -11.73293346 -3.492360115 -49.59590149 3.736310005
lowerback  7.73183012 1.478510022 -1.854369998
upperback  2.862610102 1.775370002 -0.661074996
thorax  -1.411180019 0.8641859889 0.2040379941
lowerneck  -1.049170017 6.12154007 -5.724289894
upperneck  22.57600021 6.999239922 8.001999855
head  6.482699871 3.408299923 3.905319929
lclavicle  0 -9.442270133e-015 7.951389973e-016
lhumerus  16.97719955 -6.014229774 64.77030182
lradius  2.696820842e-031 -2.279473926e-031 139.7940063
lwrist  -7.062250077e-031 -1.765562519e-031 11.54889965
lhand  -1.496451383e-031 -27.76390076 20.11240005
lfingers  90 7.125020027 -90
lthumb  89.89689403 5.08795885 91.16245106
rclavicle  0 -9.442270133e-015 7.951389973e-016
rhumerus  20.28050041 8.834179878 -72.95159912
rradius  -2.88803186e-031 2.031776566e-031 144.8730011
rwrist  7.062250077e-031 -8.827812596e-032 -21.66460037
rhand  -7.920061211e-032 -33.2840004 9.303460121
rfingers  -90 -7.125020027 -90
rthumb  -92.93752616 -24.25625642 -97.11982154
rfemur  -11.88020039 18.88949966 6.651579857
rtibia  -0 0 52.44120026
rfoot  -0 -22.11750031 -8.685350418
rtoes  5.373923086 19.29304026 -105.8922705
lfemur  -22.40679932 -1.02895999 -7.420330048
ltibia  -0 0 60.09500122
lfoot  4.472594603e-032 -9.292010307 -2.210740089
ltoes  -4.250644065 -19.5611806 -102.515957
36
root  10.14868894 38.83266599 -11.84233343 -3.785979986 -49.33940125 3.863209963
lowerback  7.924779892 1.401479959 -2.119029999
upperback  2.731820107 1.644600034 -0.7540900111
thorax  -1.654919982 0.8011490107 0.2615549862
lowerneck  -1.34660995 6.032080173 -5.721930027
upperneck  23.36840057 6.838049889 8.072349548
head  6.798419952 3.327049971 3.964750051
lclavicle  0 -9.442270133e-015 7.951389973e-016
lhumerus  16.37470055 -6.343699932 64.72239685
lradius  2.710655418e-031 -2.263004914e-031 140.1430054
lwrist  -7.062250077e-031 -0 11.19729996
lhand  -1.496451383e-031 -27.76390076 20.11240005
lfingers  90 7.125020027 -90
lthumb  89.89689403 5.08795885 91.16245106
rclavicle  0 -9.442270133e-015 7.951389973e-016
rhumerus  20.14150047 9.09869957 -73.15650177
rradius  -2.888634512e-031 2.030919666e-031 144.8899994
rwrist  7.062250077e-031 -1.765562519e-031 -21.16909981
rhand  -7.920061211e-032 -33.2840004 9.303460121
rfingers  -90 -7.125020027 -90
rthumb  -92.93752616 -24.25625642 -97.11982154
rfemur  -11.34160042 19.11030006 6.743979931
rtibia  -0 0 52.33580017
rfoot  -0 -23.58230019 -9.230899811
rtoes  5.373923086 19.29304026 -105.8922705
lfemur  -22.1651001 -0.603317976 -7.692090034
ltibia  -0 0 61.04399872
lfoot  5.613779353e-032 -10.63319969 -0.964846015
ltoes  -4.250644065 -19.5611806 -102.515957
